<svg width="24" height="24" viewBox="0 0 24 24" fill="none" xmlns="http://www.w3.org/2000/svg">
<path d="M21.3333 -0.0078125C22.0406 -0.0078125 22.7189 0.273139 23.219 0.773236C23.719 1.27333 24 1.95161 24 2.65885V21.3255C24 22.0328 23.719 22.711 23.219 23.2111C22.7189 23.7112 22.0406 23.9922 21.3333 23.9922H2.66667C1.95942 23.9922 1.28115 23.7112 0.781048 23.2111C0.280951 22.711 0 22.0328 0 21.3255V2.65885C0 1.95161 0.280951 1.27333 0.781048 0.773236C1.28115 0.273139 1.95942 -0.0078125 2.66667 -0.0078125H21.3333ZM20.6667 20.6589V13.5922C20.6667 12.4394 20.2087 11.3338 19.3936 10.5186C18.5784 9.70347 17.4728 9.24552 16.32 9.24552C15.1867 9.24552 13.8667 9.93885 13.2267 10.9789V9.49885H9.50667V20.6589H13.2267V14.0855C13.2267 13.0589 14.0533 12.2189 15.08 12.2189C15.5751 12.2189 16.0499 12.4155 16.3999 12.7656C16.75 13.1157 16.9467 13.5905 16.9467 14.0855V20.6589H20.6667ZM5.17333 7.40552C5.76742 7.40552 6.33717 7.16952 6.75725 6.74944C7.17733 6.32936 7.41333 5.75961 7.41333 5.16552C7.41333 3.92552 6.41333 2.91219 5.17333 2.91219C4.57571 2.91219 4.00257 3.14959 3.57999 3.57217C3.1574 3.99476 2.92 4.5679 2.92 5.16552C2.92 6.40552 3.93333 7.40552 5.17333 7.40552ZM7.02667 20.6589V9.49885H3.33333V20.6589H7.02667Z" fill="#BABABA"/>
</svg>
